<svg xmlns="http://www.w3.org/2000/svg" viewBox="0 0 96 96" fill="none">
  <defs>
    <linearGradient id="cloak" x1="18" y1="22" x2="78" y2="84" gradientUnits="userSpaceOnUse">
      <stop stop-color="#8FEBC8"/>
      <stop offset="1" stop-color="#1A5C4C"/>
    </linearGradient>
    <radialGradient id="aura" cx="0" cy="0" r="1" gradientUnits="userSpaceOnUse" gradientTransform="translate(48 50) rotate(90) scale(42)">
      <stop stop-color="#D0FFF0" stop-opacity=".84"/>
      <stop offset="1" stop-color="#225A4B" stop-opacity=".14"/>
    </radialGradient>
  </defs>
  <rect x="6" y="6" width="84" height="84" rx="42" fill="url(#aura)"/>
  <path d="M48 20c10.6 0 19 8.7 19 19.4S58.6 58.8 48 58.8 29 50.1 29 39.4 37.4 20 48 20Z" fill="#E0FAF1"/>
  <path d="M48 54c15.5 0 28 10.1 28 22.5V82H20v-5.5C20 64.1 32.5 54 48 54Z" fill="url(#cloak)"/>
  <circle cx="40" cy="39" r="3.2" fill="#0F4337"/>
  <circle cx="56" cy="39" r="3.2" fill="#0F4337"/>
  <path d="M37 50c2.8-1.9 6.5-3 11-3s8.2 1.1 11 3" stroke="#0F4337" stroke-width="3.2" stroke-linecap="round"/>
  <path d="M26 70c7-7 14.8-10.5 22-10.5S63 63 70 70" stroke="#B6FFDF" stroke-opacity=".6" stroke-width="3" stroke-linecap="round"/>
  <path d="M78 23 72 37" stroke="#FFD1C8" stroke-width="4" stroke-linecap="round"/>
  <path d="M66 20 61 31" stroke="#FFD1C8" stroke-opacity=".82" stroke-width="3" stroke-linecap="round"/>
  <path d="M82 36 68 41" stroke="#FFD1C8" stroke-opacity=".78" stroke-width="3" stroke-linecap="round"/>
</svg>
