<svg xmlns="http://www.w3.org/2000/svg" viewBox="0 0 96 96" fill="none">
  <defs>
    <linearGradient id="cloak" x1="18" y1="22" x2="78" y2="84" gradientUnits="userSpaceOnUse">
      <stop stop-color="#9EF7D2"/>
      <stop offset="1" stop-color="#1E6A58"/>
    </linearGradient>
    <radialGradient id="aura" cx="0" cy="0" r="1" gradientUnits="userSpaceOnUse" gradientTransform="translate(48 50) rotate(90) scale(42)">
      <stop stop-color="#C9FFF0" stop-opacity=".9"/>
      <stop offset="1" stop-color="#2A7E68" stop-opacity=".05"/>
    </radialGradient>
  </defs>
  <rect x="6" y="6" width="84" height="84" rx="42" fill="url(#aura)"/>
  <path d="M48 20c10.6 0 19 8.7 19 19.4S58.6 58.8 48 58.8 29 50.1 29 39.4 37.4 20 48 20Z" fill="#E8FFF7"/>
  <path d="M48 54c15.5 0 28 10.1 28 22.5V82H20v-5.5C20 64.1 32.5 54 48 54Z" fill="url(#cloak)"/>
  <circle cx="40" cy="39" r="3.2" fill="#134A3E"/>
  <circle cx="56" cy="39" r="3.2" fill="#134A3E"/>
  <path d="M37 47c3.4 3.4 7 5 11 5s7.6-1.6 11-5" stroke="#134A3E" stroke-width="3.2" stroke-linecap="round"/>
  <path d="M26 70c7-7 14.8-10.5 22-10.5S63 63 70 70" stroke="#B6FFDF" stroke-opacity=".75" stroke-width="3" stroke-linecap="round"/>
</svg>
